<svg width="26" height="30" viewBox="0 0 26 30" fill="none" xmlns="http://www.w3.org/2000/svg">
<path d="M7.84643 1.03711L7.42857 1.875H1.85714C0.829911 1.875 0 2.71289 0 3.75C0 4.78711 0.829911 5.625 1.85714 5.625H24.1429C25.1701 5.625 26 4.78711 26 3.75C26 2.71289 25.1701 1.875 24.1429 1.875H18.5714L18.1536 1.03711C17.8402 0.398438 17.196 0 16.4937 0H9.50625C8.80402 0 8.15982 0.398438 7.84643 1.03711ZM24.1429 7.5H1.85714L3.0875 27.3633C3.18036 28.8457 4.39911 30 5.86741 30H20.1326C21.6009 30 22.8196 28.8457 22.9125 27.3633L24.1429 7.5Z" fill="#1E3932"/>
</svg>
