<svg width="26" height="30" viewBox="0 0 26 30" fill="none" xmlns="http://www.w3.org/2000/svg">
<path d="M24.1429 0C23.2143 0 16.7143 1.875 16.7143 10.3125V16.875C16.7143 18.9434 18.3799 20.625 20.4286 20.625H22.2857V28.125C22.2857 29.1621 23.1156 30 24.1429 30C25.1701 30 26 29.1621 26 28.125V20.625V14.0625V1.875C26 0.837891 25.1701 0 24.1429 0ZM3.71429 0.9375C3.71429 0.457031 3.36027 0.0585938 2.88437 0.00585938C2.40848 -0.046875 1.98482 0.269531 1.88036 0.732422L0.121875 8.71875C0.040625 9.08789 0 9.46289 0 9.83789C0 12.5273 2.03705 14.7363 4.64286 14.9766V28.125C4.64286 29.1621 5.47277 30 6.5 30C7.52723 30 8.35714 29.1621 8.35714 28.125V14.9766C10.9629 14.7363 13 12.5273 13 9.83789C13 9.46289 12.9594 9.08789 12.8781 8.71875L11.1196 0.732422C11.0152 0.263672 10.5799 -0.046875 10.1098 0.00585938C9.63973 0.0585938 9.28571 0.457031 9.28571 0.9375V8.80078C9.28571 9.11719 9.03036 9.375 8.71696 9.375C8.42098 9.375 8.17723 9.14648 8.14821 8.84766L7.42277 0.855469C7.38214 0.369141 6.9817 0 6.5 0C6.0183 0 5.61786 0.369141 5.57723 0.855469L4.85759 8.84766C4.82857 9.14648 4.58482 9.375 4.28884 9.375C3.97545 9.375 3.72009 9.11719 3.72009 8.80078L3.71429 0.9375ZM6.51741 9.84375H6.5H6.48259L6.5 9.80273L6.51741 9.84375Z" fill="#FFFACD"/>
</svg>
