<svg width="34" height="30" viewBox="0 0 34 30" fill="none" xmlns="http://www.w3.org/2000/svg">
<path d="M33.9823 14.9707C33.9823 16.0254 33.0969 16.8516 32.0934 16.8516H30.2045L30.2458 26.2383C30.2458 26.3965 30.234 26.5547 30.2163 26.7129V27.6621C30.2163 28.957 29.1597 30.0059 27.8552 30.0059H26.9108C26.8458 30.0059 26.7809 30.0059 26.716 30C26.6333 30.0059 26.5507 30.0059 26.4681 30.0059L24.5497 30H23.133C21.8285 30 20.7719 28.9512 20.7719 27.6562V26.25V22.5C20.7719 21.4629 19.9278 20.625 18.883 20.625H15.1052C14.0604 20.625 13.2163 21.4629 13.2163 22.5V26.25V27.6562C13.2163 28.9512 12.1597 30 10.8552 30H9.43854H7.55556C7.46701 30 7.37847 29.9941 7.28993 29.9883C7.2191 29.9941 7.14826 30 7.07743 30H6.13299C4.82847 30 3.77188 28.9512 3.77188 27.6562V21.0938C3.77188 21.041 3.77188 20.9824 3.77778 20.9297V16.8457H1.88889C0.826389 16.8457 0 16.0254 0 14.9648C0 14.4375 0.177083 13.9688 0.590278 13.5586L15.7191 0.46875C16.1323 0.0585938 16.6045 0 17.0177 0C17.4309 0 17.9031 0.117188 18.2573 0.410156L33.333 13.5645C33.8052 13.9746 34.0413 14.4434 33.9823 14.9707Z" fill="#FFFACD"/>
</svg>
