<svg width="92" height="85" viewBox="0 0 92 85" fill="none" xmlns="http://www.w3.org/2000/svg">
<g clip-path="url(#clip0_1043_622)">
<path d="M47.0164 63.2857C41.9714 63.3854 37.8437 62.5876 33.8523 60.9921C30.27 59.5586 27.0595 57.5517 24.2334 54.9215C19.0892 50.1225 15.792 44.2638 14.3913 37.3456C14.1062 35.962 14.0938 34.541 13.8583 33.1449C13.4988 30.9261 13.7963 28.6948 14.1805 26.5633C15.8292 17.3017 20.5023 9.95967 28.4603 4.86141C31.7575 2.7548 35.3398 1.3587 39.17 0.623256C41.7483 0.124649 44.339 -0.0872589 46.9669 0.0249277C51.107 0.186975 55.086 1.072 58.879 2.7548C65.1512 5.52207 70.035 9.87241 73.5182 15.8058C75.0304 18.3737 76.146 21.0911 76.7162 24.0328C76.9394 25.1796 77.1253 26.3389 77.3484 27.4857C77.3732 27.6103 77.5963 27.7973 77.7203 27.7973C78.4392 27.8223 79.1706 27.8098 79.8895 27.8098C80.3853 27.8098 80.782 27.9718 81.0175 28.4206C81.2654 28.8818 81.191 29.3305 80.8935 29.7544C79.5176 31.6989 78.1665 33.656 76.7534 35.5756C76.0221 36.5603 75.204 36.3983 74.5594 35.5507C73.0967 33.6435 71.7828 31.6366 70.3945 29.6796C70.097 29.2682 70.0598 28.8569 70.2953 28.4331C70.5308 28.0092 70.9275 27.7973 71.4233 27.8098C72.1919 27.8223 72.948 27.8098 73.7165 27.8098C73.9272 27.8098 74.1008 27.8597 74.0512 27.4982C73.6297 24.5065 72.7001 21.6769 71.349 18.9845C70.8407 17.9748 70.1962 17.0274 69.5144 16.1175C68.2996 14.5219 67.1593 12.8267 65.7214 11.468C64.1719 10.0095 62.3622 8.81287 60.5648 7.64115C57.8254 5.84616 54.7513 4.88634 51.5532 4.22569C47.537 3.39052 43.5457 3.36559 39.5295 4.21322C31.9434 5.80877 25.9935 9.85995 21.7047 16.3044C19.6966 19.321 18.3207 22.6492 17.6513 26.2516C17.267 28.2959 16.9448 30.3527 17.0935 32.4219C17.3414 35.9994 18.0728 39.4647 19.585 42.7431C22.2129 48.4397 26.2043 52.8648 31.5591 56.0933C33.8275 57.452 36.2695 58.2622 38.761 59.0226C40.1369 59.4339 41.5252 59.5087 42.9259 59.4339C44.748 59.3467 46.0744 58.3121 47.1156 56.891C48.3304 55.2332 48.7642 53.2761 49.3096 51.344C49.5947 50.297 49.4336 49.4618 48.8386 48.5643C47.3759 46.333 46.1487 43.9522 45.2687 41.4467C44.7852 40.0755 44.5497 38.6046 44.3638 37.1587C43.8432 32.9953 44.401 28.9566 46.062 25.0799C47.4379 21.8764 49.322 19.0218 51.8631 16.6285C53.2762 15.2948 54.8504 14.1978 56.4991 13.2006C57.2428 12.7519 58.0237 12.353 58.7922 11.9666C59.7963 11.468 60.5896 11.7173 61.1722 12.6521C63.4654 16.3294 65.0768 20.2684 65.7462 24.5564C66.1056 26.8624 66.3287 29.1934 66.0684 31.5369C65.8081 33.8679 65.3743 36.1365 64.5066 38.3553C62.7216 42.8428 59.6475 46.1835 55.7801 48.9009C55.0116 49.4493 54.2059 49.9604 53.4126 50.459C52.5201 51.0199 52.0366 51.8053 51.9375 52.8773C51.7887 54.4603 51.2557 55.9312 50.4748 57.3149C50.0286 58.1002 49.5079 58.8356 49.0245 59.5835C48.9873 59.6458 48.9501 59.7206 48.913 59.783C48.9873 59.7705 49.0741 59.7456 49.1485 59.7331C51.64 59.4589 54.0571 58.8605 56.3379 57.8259C59.1021 56.5669 61.8168 55.2082 64.0604 53.0892C64.9652 52.2415 65.7585 51.2817 66.6634 50.4465C68.1757 49.0629 69.3037 47.3801 70.3325 45.635C71.0391 44.4383 71.5721 43.142 72.1919 41.8954C72.5265 41.2223 73.2951 40.7985 74.0264 40.8982C74.6958 40.9855 75.3279 41.6337 75.4023 42.3691C75.4271 42.6683 75.3651 42.9924 75.2536 43.2666C74.014 46.5823 72.1423 49.5117 69.8739 52.1917C67.432 55.0587 64.5562 57.3896 61.2961 59.247C59.1641 60.4685 56.8957 61.3411 54.5529 62.0516C53.6729 62.3134 52.8176 62.6749 51.9127 62.7995C50.041 63.0613 48.1568 63.186 47.0164 63.2857ZM58.0609 16.1549C55.7057 17.3889 53.71 19.0842 52.0366 21.1534C49.1361 24.7683 47.4751 28.8818 47.3139 33.5562C47.2767 34.728 47.3139 35.9246 47.4627 37.0963C47.8345 40.0132 48.7642 42.7431 50.3261 45.2361C50.4004 45.3608 50.4996 45.4605 50.5864 45.5602C50.6359 45.4231 50.7103 45.286 50.7475 45.1364C51.5656 41.1226 52.3837 37.1088 53.1646 33.095C53.239 32.7335 53.1522 32.2474 52.9663 31.9482C52.235 30.8014 51.4169 29.692 50.6235 28.5826C50.2021 27.9843 50.1525 27.4234 50.5368 27.0743C50.9706 26.6755 51.5036 26.7503 52.0614 27.3112C52.6688 27.9344 53.2638 28.5702 53.8588 29.2059C54.0571 29.4178 54.1687 29.5175 54.2802 29.1186C55.557 24.8306 56.8585 20.5426 58.1477 16.267C58.1725 16.2297 58.1849 16.2047 58.2096 16.1673C58.1601 16.1549 58.1105 16.1549 58.0609 16.1549ZM55.5694 34.3665C56.7841 33.3693 57.9865 32.3596 59.2137 31.3748C59.7591 30.9386 60.2797 31.0009 60.5276 31.5119C60.7755 31.9981 60.5648 32.372 60.2053 32.7211C58.4452 34.4413 56.685 36.1615 54.9372 37.9066C54.7389 38.106 54.5777 38.4177 54.5158 38.7044C53.958 41.4467 53.4373 44.189 52.9043 46.9314C52.8795 47.0685 52.8795 47.2056 52.8671 47.3552C52.9911 47.2929 53.1399 47.2555 53.239 47.1807C54.2555 46.4078 55.3091 45.6599 56.2883 44.8372C60.602 41.1974 62.8704 36.5105 63.1803 30.8887C63.4282 26.4262 62.387 22.2129 60.5028 18.1867C60.4408 18.062 60.3541 17.9498 60.2797 17.8252C60.2177 17.9498 60.1557 18.0745 60.1062 18.2116C59.3005 20.8293 58.47 23.4345 57.7138 26.0647C56.9329 28.7945 56.214 31.5369 55.4702 34.2792C55.4578 34.3415 55.4454 34.4039 55.433 34.4787C55.4826 34.4163 55.5322 34.3914 55.5694 34.3665Z" fill="#0F5721"/>
<path d="M42.0086 19.8321C42.0086 22.0135 42.0334 24.1949 42.0086 26.3763C41.9838 28.4455 41.2277 30.2031 39.5419 31.4621C39.0709 31.8111 38.5131 32.0729 37.9677 32.2972C37.0628 32.6837 36.629 33.2446 36.6661 34.2293C36.8149 38.1309 36.976 42.0325 37.1248 45.9341C37.1868 47.5546 37.2487 49.1751 37.2239 50.7955C37.2115 51.7678 36.9636 52.6404 35.9844 53.2387C34.5961 54.0739 32.7615 52.8523 32.6128 51.6058C32.5012 50.6584 32.5136 49.6986 32.5384 48.7513C32.6004 45.9466 32.6996 43.1419 32.7739 40.3497C32.8111 38.7667 32.7863 37.1711 32.8731 35.588C32.9227 34.7903 32.9847 34.0299 32.7739 33.2321C32.6128 32.6338 32.2409 32.3346 31.7699 32.1975C30.1585 31.7612 28.9561 30.8263 28.2991 29.3056C27.9149 28.4206 27.5802 27.4233 27.5678 26.476C27.4934 22.0509 27.5182 17.6257 27.5306 13.2006C27.5306 11.8917 28.2743 11.3059 29.4767 11.5926C30.1461 11.7546 30.4807 12.2408 30.4807 13.1632C30.4931 15.382 30.4807 17.6133 30.4931 19.8321C30.4931 21.0412 30.4683 22.2378 30.4931 23.447C30.5303 25.0051 31.1005 25.217 32.2657 25.2918C32.9351 25.3292 33.059 24.6561 33.2078 24.1699C33.3193 23.8209 33.3069 23.4345 33.3069 23.0605C33.3069 19.9442 33.3069 16.828 33.3069 13.7117C33.3069 13.4873 33.3193 13.2505 33.3317 13.0261C33.3441 11.5677 34.5713 11.2685 35.5753 11.7048C35.8728 11.8294 36.0959 12.3654 36.1827 12.7394C36.2943 13.238 36.2571 13.774 36.2571 14.2851C36.2571 17.2767 36.2571 20.2683 36.2695 23.26C36.2695 23.6464 36.3191 24.0453 36.4306 24.4192C36.6042 25.0176 37.0876 25.2544 37.6702 25.2669C38.2652 25.2793 38.7114 24.9802 38.9097 24.4192C39.0213 24.1076 39.0585 23.7711 39.0585 23.447C39.0709 20.2933 39.0709 17.1271 39.0709 13.9734C39.0709 13.7865 39.0709 13.5995 39.0709 13.4125C39.0833 11.8917 39.5543 11.4804 41.0294 11.7297C41.7359 11.8544 42.021 12.2158 42.0334 13.0884C42.0086 15.3446 42.0086 17.5883 42.0086 19.8321Z" fill="#0F5721"/>
<path d="M0.0123837 77.658C0.0123837 75.6262 0.0123837 73.5944 0.0123837 71.5501C0.0123837 70.7149 0.0743616 70.6401 0.880074 70.6401C2.15682 70.6401 3.44596 70.6401 4.7227 70.6526C7.8216 70.69 8.9372 72.9088 8.85043 75.3395C8.80085 76.8353 8.26784 78.1192 6.92912 78.9544C6.84235 79.0043 6.81756 79.3034 6.87954 79.4405C7.51171 80.9239 8.15628 82.3948 8.80085 83.8657C9.13553 84.6136 9.04876 84.7507 8.20586 84.7507C7.77202 84.7507 7.33817 84.7133 6.90433 84.7632C6.37132 84.8255 6.1358 84.5388 5.94987 84.1025C5.37967 82.7314 4.78468 81.3726 4.20209 80.0015C4.06574 79.6898 2.96253 79.453 2.7642 79.7023C2.68983 79.7896 2.70222 79.9765 2.70222 80.1137C2.70222 81.3851 2.70222 82.6441 2.70222 83.9155C2.70222 84.6136 2.55348 84.7632 1.88412 84.7632C1.51225 84.7632 1.14038 84.7382 0.768514 84.7632C0.198317 84.813 -1.19284e-05 84.5637 0.0123837 84.0028C0.0123837 81.8962 0.0123837 79.7771 0.0123837 77.658ZM2.68983 75.0902C2.68983 75.6511 2.65264 76.2121 2.70222 76.773C2.71462 76.96 2.93774 77.2591 3.0617 77.2716C3.78064 77.2841 4.51198 77.4212 5.20613 76.9974C5.87549 76.586 6.29694 75.7384 6.1482 74.8658C5.98705 73.8437 5.47883 73.2827 4.54917 73.183C4.07813 73.1332 3.59471 73.1706 3.12367 73.1332C2.78899 73.1082 2.65264 73.183 2.67743 73.557C2.71462 74.0556 2.68983 74.5791 2.68983 75.0902Z" fill="#0F5721"/>
<path d="M20.5147 78.0444C20.4279 79.0292 20.4155 80.3629 20.1676 81.6593C19.7834 83.7161 18.1471 84.9875 16.0647 85C15.4325 85 14.7879 84.975 14.1682 84.8379C12.47 84.464 11.3544 83.367 11.0569 81.6842C10.5734 79.0666 10.6354 76.399 11.0197 73.7689C11.1932 72.5847 11.8998 71.6872 12.8047 71.0265C13.3005 70.665 14.0442 70.5653 14.7012 70.4781C15.73 70.3409 16.7588 70.3783 17.7381 70.7897C19.2999 71.4628 20.1924 72.6345 20.3164 74.3547C20.3907 75.4641 20.4403 76.586 20.5147 78.0444ZM13.4244 77.6331C13.4864 78.73 13.4988 79.8394 13.6352 80.9239C13.7095 81.5222 13.9822 82.1081 14.6268 82.3698C16.2134 83.018 17.6141 82.2078 17.7009 80.5001C17.8001 78.8422 17.7877 77.1843 17.7877 75.5265C17.7877 75.1026 17.7009 74.6539 17.5769 74.2425C17.2919 73.2204 16.6845 72.834 15.5317 72.8714C14.4037 72.9088 13.7839 73.345 13.6228 74.4171C13.4864 75.4766 13.4864 76.5611 13.4244 77.6331Z" fill="#0F5721"/>
<path d="M42.5417 79.6399C42.4797 81.0111 42.1698 82.3075 41.2401 83.367C40.4592 84.2645 39.4552 84.7133 38.3024 84.7507C36.9389 84.8005 35.5753 84.7631 34.2118 84.7756C33.778 84.7756 33.5673 84.626 33.5673 84.1648C33.5797 79.8643 33.5673 75.5638 33.5673 71.2633C33.5673 70.9268 33.6416 70.6525 34.0259 70.665C35.6497 70.6899 37.2983 70.5902 38.9098 70.8146C40.9798 71.1013 42.145 72.4974 42.3929 74.5791C42.4301 74.8658 42.4921 75.14 42.5541 75.4142C42.5417 76.8228 42.5417 78.2314 42.5417 79.6399ZM36.1951 77.6704C36.1951 78.7674 36.1951 79.8643 36.1951 80.9612C36.1951 82.2576 36.1951 82.2576 37.5091 82.2576C38.8602 82.2576 39.6163 81.6967 39.7774 80.338C39.9262 78.9917 39.9262 77.6081 39.9138 76.2494C39.9014 73.7314 39.1949 73.0832 36.6909 73.0832C36.2447 73.0832 36.1951 73.2453 36.2075 73.6192C36.2075 74.978 36.1951 76.3242 36.1951 77.6704Z" fill="#0F5721"/>
<path d="M55.6686 77.4461C55.743 76.2495 55.7058 75.0403 55.9041 73.8686C56.2388 71.8866 57.9618 70.5279 59.9946 70.4282C61.1722 70.3659 62.2754 70.5778 63.3414 71.0639C64.2091 71.4628 64.6554 72.2855 64.8785 73.1332C65.5974 75.9004 65.5231 78.7176 65.0768 81.4973C64.6182 84.3768 62.3622 85.2742 59.7715 84.9377C58.879 84.8255 57.9246 84.464 57.1808 83.9529C56.3751 83.3795 56.0157 82.3449 55.9041 81.3477C55.7553 80.0513 55.743 78.7425 55.6686 77.4461ZM62.7217 77.6331C62.7093 77.6331 62.6845 77.6331 62.6721 77.6331C62.6721 77.0098 62.6969 76.3866 62.6597 75.7633C62.6225 75.2273 62.5605 74.6788 62.4242 74.1678C62.1763 73.2329 61.5193 72.8589 60.3665 72.8839C59.3749 72.9088 58.7675 73.3077 58.5939 74.2426C58.1849 76.4863 58.2716 78.7425 58.5444 80.9987C58.6435 81.8089 59.1393 82.4073 59.9822 82.482C61.6804 82.6441 62.3498 82.2078 62.5605 80.5499C62.6845 79.5901 62.6721 78.6054 62.7217 77.6331Z" fill="#0F5721"/>
<path d="M26.8364 70.6775C27.0843 70.6775 27.3322 70.6775 27.5802 70.6775C28.4478 70.6775 28.547 70.7523 28.7453 71.5625C29.7494 75.5389 30.7534 79.5278 31.7451 83.5042C31.7946 83.7285 31.9186 83.9778 31.8566 84.1648C31.7823 84.3892 31.5467 84.5637 31.3732 84.7507C31.3484 84.7756 31.2988 84.7507 31.2492 84.7631C29.3899 84.8878 29.3527 84.8878 29.0056 83.018C28.8941 82.4072 28.671 82.2078 28.0636 82.2452C27.1587 82.295 26.2414 82.2826 25.3365 82.2452C24.9523 82.2327 24.8283 82.3823 24.7664 82.7064C24.6548 83.1925 24.5308 83.6662 24.4069 84.1523C24.3077 84.5762 24.0598 84.7756 23.6136 84.7631C23.2169 84.7507 22.8326 84.7631 22.436 84.7631C21.6303 84.7756 21.5187 84.6385 21.717 83.8656C22.1137 82.3075 22.5228 80.7618 22.9194 79.2037C23.5764 76.6733 24.2457 74.1428 24.9027 71.5999C25.1506 70.665 25.1382 70.665 26.1423 70.665C26.3902 70.6775 26.6133 70.6775 26.8364 70.6775ZM26.1423 79.9017C26.7744 79.8643 27.4066 79.8269 28.0264 79.7646C28.1008 79.7521 28.2247 79.5776 28.2123 79.5028C27.8033 77.7453 27.3818 75.9877 26.9604 74.2301C26.9356 74.1428 26.8612 74.068 26.8116 73.9932C26.7868 74.068 26.7744 74.1553 26.7496 74.2301C26.353 75.8755 25.9563 77.5209 25.5473 79.1538C25.3737 79.9017 25.3613 79.9017 26.1423 79.9017Z" fill="#0F5721"/>
<path d="M74.3983 70.6401C75.3651 70.6401 76.3444 70.6526 77.3112 70.6401C77.7823 70.6276 78.0054 70.8146 77.9806 71.3008C77.9682 71.6747 77.9558 72.0487 77.9806 72.4226C78.0054 72.9462 77.7946 73.1705 77.2616 73.1581C76.1708 73.1331 75.08 73.1581 73.9768 73.1456C73.6297 73.1331 73.4686 73.183 73.481 73.6068C73.5182 74.4794 73.5058 75.3519 73.481 76.2245C73.4686 76.5486 73.5802 76.6483 73.9024 76.6483C74.8321 76.6234 75.7618 76.6483 76.6914 76.6359C77.1749 76.6234 77.3732 76.8228 77.3484 77.2965C77.3236 77.7079 77.336 78.1317 77.3484 78.543C77.3608 78.9918 77.1501 79.1787 76.7038 79.1663C75.7742 79.1538 74.8445 79.1787 73.9148 79.1538C73.5554 79.1414 73.4686 79.266 73.4686 79.6026C73.4934 81.0735 73.4562 82.5443 73.481 84.0277C73.4934 84.6011 73.2827 84.8005 72.7249 84.7881C70.5432 84.7257 70.8655 85.1246 70.8655 82.9183C70.8531 79.104 70.8655 75.2771 70.8655 71.4628C70.8655 70.69 70.9027 70.665 71.6712 70.6526C72.5761 70.6401 73.481 70.6401 74.3983 70.6401Z" fill="#0F5721"/>
<path d="M53.8836 70.6401C54.4662 70.5653 54.6521 70.7897 54.6397 71.4005C54.6025 73.4447 54.7017 73.1456 52.8423 73.158C51.8879 73.158 51.8879 73.158 51.8879 74.1303C51.8879 77.3962 51.9003 80.6496 51.9003 83.9155C51.9003 84.6385 51.7887 84.7631 51.0946 84.7631C50.6979 84.7631 50.3136 84.7382 49.917 84.7631C49.3964 84.8005 49.2104 84.5512 49.2104 84.0651C49.2104 83.1676 49.2104 82.2825 49.2104 81.3851C49.2104 78.8048 49.198 76.2369 49.2228 73.6567C49.2228 73.2453 49.1113 73.1206 48.7146 73.1456C48.1816 73.183 47.6362 73.1331 47.1032 73.158C46.6198 73.183 46.4338 72.9586 46.4462 72.4849C46.471 72.0736 46.409 71.6498 46.471 71.2384C46.5082 71.0265 46.7313 70.8395 46.8677 70.6401C49.2104 70.6525 51.5408 70.6401 53.8836 70.6401Z" fill="#0F5721"/>
<path d="M86.6451 78.7674C86.6451 77.0472 86.6327 75.327 86.6575 73.6068C86.6575 73.2578 86.5832 73.1332 86.2237 73.1581C85.6907 73.1955 85.1453 73.1456 84.6123 73.1706C84.0669 73.1955 83.8685 72.9587 83.9057 72.4227C83.9305 72.0736 83.9305 71.7121 83.9057 71.3631C83.8809 70.8645 84.0917 70.6401 84.5875 70.6401C86.8807 70.6526 89.1614 70.6401 91.4546 70.6526C91.6406 70.6526 91.9628 70.8271 91.9752 70.9393C92.0124 71.5626 92.0124 72.1983 91.9504 72.834C91.938 72.9587 91.653 73.1332 91.4794 73.1456C90.9464 73.183 90.401 73.183 89.868 73.1456C89.4465 73.1207 89.3102 73.2204 89.3226 73.6692C89.3474 76.9849 89.335 80.3131 89.335 83.6288C89.335 83.8283 89.3102 84.0402 89.2854 84.2396C89.2482 84.6261 89.0499 84.8006 88.6284 84.7632C88.2442 84.7258 87.8475 84.7507 87.4509 84.7507C86.7443 84.7507 86.6451 84.6635 86.6451 83.9155C86.6451 82.2078 86.6451 80.4876 86.6451 78.7674Z" fill="#0F5721"/>
<path d="M79.6912 77.6581C79.6912 75.6262 79.6912 73.5944 79.6912 71.5626C79.6912 70.715 79.7407 70.6651 80.6208 70.6526C81.0175 70.6526 81.4018 70.6402 81.7984 70.6526C82.2075 70.6526 82.3934 70.8521 82.3934 71.2634C82.3934 75.5639 82.3934 79.8519 82.3934 84.1524C82.3934 84.5887 82.1951 84.8006 81.7488 84.7757C81.315 84.7632 80.8811 84.7383 80.4473 84.7757C79.8647 84.8255 79.6912 84.5638 79.6912 84.0153C79.7036 81.8962 79.6912 79.7771 79.6912 77.6581Z" fill="#0F5721"/>
<path d="M55.4702 34.2543C56.2139 31.512 56.9205 28.7696 57.7138 26.0398C58.4699 23.4096 59.3004 20.8044 60.1061 18.1867C60.1433 18.0496 60.2177 17.9249 60.2797 17.8003C60.3541 17.9249 60.4408 18.0371 60.5028 18.1618C62.3745 22.188 63.4282 26.3888 63.1803 30.8638C62.858 36.4856 60.602 41.185 56.2883 44.8123C55.3091 45.635 54.2678 46.3829 53.239 47.1558C53.1274 47.243 52.9911 47.2804 52.8671 47.3303C52.8795 47.1932 52.8795 47.0436 52.9043 46.9065C53.4373 44.1641 53.9703 41.4218 54.5157 38.6795C54.5777 38.3928 54.7265 38.0811 54.9372 37.8817C56.6726 36.1366 58.4327 34.4164 60.2053 32.6962C60.5648 32.3471 60.7755 31.9732 60.5276 31.4871C60.2797 30.9884 59.7591 30.9137 59.2137 31.3499C57.9865 32.3347 56.7841 33.3444 55.5694 34.3416C55.5446 34.3291 55.5074 34.2917 55.4702 34.2543Z" fill="#6EA936"/>
<path d="M58.1601 16.2545C56.8709 20.5425 55.5694 24.8181 54.2927 29.1061C54.1811 29.505 54.0571 29.4053 53.8712 29.1934C53.2762 28.5576 52.6812 27.9219 52.0738 27.2987C51.516 26.7377 50.983 26.6629 50.5492 27.0618C50.1649 27.4233 50.2145 27.9842 50.636 28.5701C51.4293 29.6795 52.235 30.7889 52.9787 31.9357C53.1771 32.2349 53.2514 32.721 53.1771 33.0825C52.3961 37.1087 51.578 41.1101 50.7599 45.1239C50.7351 45.2734 50.6608 45.4106 50.5988 45.5477C50.512 45.4355 50.4128 45.3358 50.3385 45.2236C48.7766 42.7181 47.847 39.9882 47.4751 37.0838C47.3263 35.9121 47.2892 34.7279 47.3263 33.5437C47.4875 28.8817 49.1361 24.7682 52.0491 21.1409C53.7101 19.0592 55.7058 17.3764 58.0733 16.1423C58.0981 16.1922 58.1229 16.2171 58.1601 16.2545Z" fill="#6EA936"/>
<path d="M55.5694 34.3665C55.5198 34.3914 55.4826 34.4288 55.433 34.4537C55.4454 34.3914 55.4578 34.3291 55.4702 34.2543C55.5074 34.2917 55.5446 34.3291 55.5694 34.3665Z" fill="#6EA936"/>
<path d="M58.0609 16.1549C58.1105 16.1549 58.1601 16.1549 58.2097 16.1549C58.1849 16.1923 58.1725 16.2172 58.1477 16.2546C58.1229 16.2172 58.0981 16.1923 58.0609 16.1549Z" fill="#6EA936"/>
</g>
<defs>
<clipPath id="clip0_1043_622">
<rect width="92" height="85" fill="white"/>
</clipPath>
</defs>
</svg>
