<svg width="95" height="85" viewBox="0 0 95 85" fill="none" xmlns="http://www.w3.org/2000/svg">
<g clip-path="url(#clip0_1063_59)">
<path d="M46.9161 84.9878C39.8133 85.122 34.0009 84.0506 28.3807 81.908C23.3373 79.9833 18.8166 77.2875 14.8363 73.7565C7.59371 67.3118 2.95073 59.4453 0.97881 50.1555C0.5768 48.2978 0.559321 46.3899 0.228814 44.5139C-0.278068 41.5346 0.141421 38.5386 0.683261 35.6751C3.00475 23.2384 9.58469 13.3786 20.7901 6.53311C25.4331 3.7047 30.4765 1.83028 35.8695 0.841247C39.4971 0.173768 43.1454 -0.111206 46.8461 0.0396625C52.6761 0.257584 58.2772 1.44625 63.6193 3.7047C72.4509 7.42003 79.3279 13.2628 84.2315 21.2298C86.3607 24.6785 87.9322 28.3268 88.7347 32.2768C89.0493 33.8175 89.3099 35.3734 89.6245 36.9141C89.6595 37.0817 89.9741 37.3332 90.1489 37.3332C91.161 37.3667 92.1907 37.3499 93.2029 37.3499C93.9004 37.3499 94.4597 37.5679 94.7918 38.1698C95.1414 38.7885 95.0365 39.392 94.6171 39.9604C92.6801 42.5709 90.7781 45.1997 88.7871 47.7782C87.7575 49.1009 86.6055 48.883 85.6981 47.7446C83.6388 45.1829 81.7893 42.4886 79.8332 39.8614C79.4138 39.3097 79.3613 38.7565 79.6934 38.1881C80.0255 37.6197 80.5832 37.3347 81.2824 37.3515C82.3645 37.3682 83.4291 37.3515 84.5112 37.3515C84.8083 37.3515 85.0514 37.4185 84.9831 36.9324C84.3904 32.9153 83.0811 29.1146 81.1791 25.4999C80.4641 24.1436 79.5552 22.8726 78.5954 21.6505C76.8857 19.5078 75.2792 17.2311 73.2549 15.4069C71.0732 13.4487 68.5245 11.8409 65.9949 10.2683C62.1384 7.8574 57.8101 6.56968 53.3069 5.68124C47.6517 4.55963 42.0315 4.5261 36.378 5.66447C25.6969 7.80711 17.3198 13.2475 11.2801 21.9004C8.45334 25.951 6.5148 30.4206 5.57253 35.2576C5.03069 38.0022 4.57784 40.7651 4.78758 43.5432C5.13716 48.3466 6.16681 53.0007 8.29604 57.4033C11.9968 65.0534 17.6154 70.9952 25.1551 75.3307C28.3489 77.1549 31.7874 78.243 35.2959 79.264C37.2328 79.8156 39.1873 79.9162 41.1608 79.8156C43.727 79.6983 45.594 78.3085 47.0606 76.4005C48.7704 74.1741 49.3821 71.5468 50.1496 68.9516C50.5516 67.545 50.3244 66.4234 49.487 65.2195C47.4277 62.2235 45.6989 59.0263 44.4611 55.6614C43.781 53.8205 43.4489 51.8455 43.1867 49.904C42.4542 44.3128 43.2392 38.8906 45.5781 33.6849C47.5151 29.3829 50.1687 25.5502 53.7455 22.3362C55.7349 20.5456 57.9515 19.072 60.273 17.7324C61.3201 17.1305 62.4197 16.5941 63.5018 16.0759C64.916 15.4069 66.033 15.7407 66.8529 16.9964C70.0817 21.9339 72.3508 27.2234 73.293 32.9824C73.7999 36.079 74.1129 39.2091 73.7475 42.356C73.3804 45.4862 72.7702 48.5325 71.5483 51.5118C69.0346 57.5374 64.7062 62.0238 59.2608 65.6721C58.1787 66.4082 57.0442 67.0954 55.9271 67.7644C54.6702 68.5173 53.9902 69.5718 53.8503 71.0119C53.6406 73.1378 52.8906 75.1128 51.791 76.9705C51.1634 78.025 50.4293 79.0125 49.7492 80.0168C49.6968 80.1006 49.6443 80.2012 49.5919 80.285C49.6968 80.2683 49.8191 80.2347 49.924 80.218C53.4324 79.8492 56.836 79.0461 60.0473 77.6562C63.9387 75.9662 67.7618 74.1405 70.9207 71.2954C72.195 70.157 73.3121 68.8678 74.5864 67.7462C76.7157 65.8885 78.3046 63.6285 79.7522 61.2847C80.7469 59.6785 81.4969 57.9366 82.3708 56.2634C82.8428 55.3597 83.9249 54.7897 84.9545 54.9238C85.8968 55.0412 86.7866 55.9113 86.8915 56.8989C86.9264 57.3012 86.839 57.7355 86.6817 58.1043C84.937 62.5572 82.3009 66.4904 79.1071 70.09C75.6685 73.9394 71.6198 77.0695 67.0293 79.5642C64.0277 81.2039 60.8339 82.3758 57.5352 83.3298C56.2958 83.6818 55.0913 84.1665 53.817 84.3341C51.1809 84.6861 48.5289 84.8522 46.9224 84.9863L46.9161 84.9878ZM62.4673 21.6992C59.1512 23.3557 56.3418 25.6325 53.9854 28.4121C49.9017 33.2658 47.5628 38.79 47.3355 45.0671C47.2831 46.6398 47.3355 48.2475 47.5453 49.8202C48.0696 53.7367 49.3774 57.4033 51.5765 60.7513C51.6814 60.919 51.8212 61.0531 51.9436 61.1872C52.0135 61.0028 52.1184 60.8184 52.1708 60.6188C53.3228 55.2286 54.4748 49.8385 55.5744 44.4499C55.6792 43.9638 55.5569 43.3115 55.2947 42.9092C54.2651 41.3685 53.1131 39.8797 51.996 38.3893C51.4033 37.5861 51.3334 36.8318 51.8736 36.364C52.4838 35.8291 53.2354 35.9281 54.0204 36.6825C54.8752 37.5191 55.7126 38.3725 56.5516 39.2274C56.8312 39.5124 56.9886 39.6465 57.1443 39.1101C58.9414 33.3527 60.7751 27.5938 62.5897 21.8531C62.6246 21.8028 62.6421 21.7693 62.6771 21.719C62.6072 21.7023 62.5373 21.7023 62.4673 21.7023V21.6992ZM58.9589 46.1552C60.6686 44.8156 62.3625 43.4609 64.0897 42.1381C64.8572 41.5529 65.5913 41.6352 65.9393 42.3225C66.2888 42.9747 65.9917 43.4776 65.4848 43.9455C63.006 46.2558 60.5288 48.566 58.0675 50.9083C57.7878 51.1765 57.5606 51.5941 57.4748 51.9796C56.6898 55.6614 55.9557 59.3448 55.2057 63.0266C55.1708 63.211 55.1708 63.3953 55.1533 63.595C55.3281 63.5112 55.5378 63.4609 55.6777 63.3603C57.1093 62.3225 58.5918 61.3182 59.9711 60.2134C66.0441 55.3262 69.238 49.0323 69.6749 41.4828C70.0245 35.4907 68.5579 29.8324 65.9043 24.4255C65.8169 24.2579 65.6945 24.107 65.5897 23.9394C65.5023 24.107 65.4149 24.2747 65.345 24.459C64.2104 27.9747 63.041 31.4722 61.9763 35.0046C60.8768 38.6697 59.8646 42.353 58.8175 46.0348C58.8 46.1186 58.7825 46.2024 58.765 46.303C58.8349 46.2192 58.9049 46.1857 58.9573 46.1521L58.9589 46.1552Z" fill="#FFFACD"/>
<path d="M39.8642 26.6367C39.8642 29.5657 39.8992 32.4947 39.8642 35.4252C39.8293 38.2033 38.7646 40.5639 36.3907 42.2539C35.7281 42.7233 34.9416 43.0738 34.1741 43.3755C32.8997 43.8952 32.2896 44.648 32.342 45.9708C32.5517 51.21 32.779 56.4493 32.9871 61.6885C33.0745 63.8647 33.1619 66.0409 33.127 68.217C33.1095 69.523 32.7599 70.6949 31.3823 71.498C29.4278 72.6196 26.8442 70.9784 26.6344 69.3051C26.4771 68.0326 26.4946 66.7434 26.5295 65.4724C26.6169 61.7068 26.7568 57.9397 26.8616 54.1908C26.9141 52.0649 26.8791 49.9223 27.0015 47.7964C27.0714 46.7251 27.1588 45.7041 26.8616 44.6327C26.6344 43.8296 26.1116 43.4273 25.4474 43.2429C23.1784 42.6577 21.4861 41.402 20.5598 39.36C20.0179 38.1713 19.5476 36.8318 19.5301 35.5608C19.4252 29.619 19.4602 23.6757 19.4777 17.7339C19.4777 15.9768 20.5248 15.189 22.2171 15.5745C23.1593 15.7925 23.6312 16.4447 23.6312 17.6836C23.6487 20.6629 23.6312 23.659 23.6487 26.6382C23.6487 28.2612 23.6138 29.869 23.6487 31.4919C23.7012 33.5843 24.5036 33.8693 26.145 33.9698C27.0873 34.0201 27.2621 33.1164 27.4718 32.4627C27.6291 31.9933 27.6116 31.4752 27.6116 30.9723V18.4182C27.6116 18.1164 27.6291 17.7995 27.6466 17.4977C27.6641 15.5395 29.3913 15.1372 30.8055 15.7239C31.225 15.8915 31.538 16.6108 31.6603 17.1137C31.8176 17.7827 31.7652 18.5035 31.7652 19.1893C31.7652 23.2063 31.7652 27.2234 31.7827 31.2405C31.7827 31.7601 31.8526 32.295 32.0099 32.7979C32.2546 33.601 32.9347 33.9195 33.7546 33.9363C34.592 33.9531 35.2212 33.5508 35.4993 32.7979C35.6566 32.3789 35.709 31.9278 35.709 31.4919C35.7265 27.2569 35.7265 23.0052 35.7265 18.7702V18.0174C35.744 15.9753 36.4066 15.4221 38.4834 15.7574C39.4781 15.925 39.8801 16.4096 39.8976 17.5815C39.8626 20.6111 39.8626 23.6239 39.8626 26.6367H39.8642Z" fill="#FFFACD"/>
<path d="M58.8191 46.0043C59.8662 42.3225 60.8609 38.6391 61.978 34.9741C63.0426 31.4416 64.2121 27.9442 65.3466 24.4285C65.399 24.2441 65.5039 24.0765 65.5913 23.9089C65.6962 24.0765 65.8185 24.2274 65.9059 24.395C68.542 29.8019 70.0245 35.4419 69.6765 41.4523C69.2221 49.0018 66.0457 55.3124 59.9727 60.1829C58.5934 61.2877 57.1284 62.292 55.6793 63.3298C55.522 63.4471 55.3297 63.4974 55.1549 63.5645C55.1724 63.3801 55.1724 63.1789 55.2073 62.996C55.9573 59.3142 56.7089 55.6309 57.4764 51.9491C57.5638 51.5636 57.7735 51.146 58.0691 50.8778C60.5129 48.534 62.9901 46.2237 65.4864 43.915C65.9933 43.4456 66.2889 42.9442 65.9409 42.292C65.5913 41.623 64.8588 41.5224 64.0913 42.1076C62.3641 43.4304 60.6702 44.7851 58.9605 46.1247C58.9255 46.1079 58.8731 46.0576 58.8207 46.0073L58.8191 46.0043Z" fill="#6EA936"/>
<path d="M62.6056 21.8333C60.791 27.5907 58.9573 33.3328 57.1602 39.0902C57.0029 39.6251 56.8281 39.4925 56.5675 39.2075C55.7301 38.3541 54.8927 37.5007 54.0362 36.6626C53.2513 35.9098 52.4997 35.8092 51.8895 36.3441C51.3477 36.8302 51.4176 37.583 52.0119 38.3694C53.1289 39.8598 54.2635 41.3487 55.3106 42.8894C55.5903 43.2917 55.6951 43.9439 55.5903 44.43C54.4907 49.8369 53.3387 55.2103 52.1867 60.5989C52.1517 60.8 52.0469 60.9844 51.9595 61.1673C51.8371 61.0164 51.6973 60.8823 51.5924 60.7315C49.3933 57.3666 48.084 53.7016 47.5612 49.8004C47.3514 48.2277 47.299 46.6367 47.3514 45.0472C47.5787 38.7869 49.9001 33.2627 54.0013 28.3922C56.3403 25.5974 59.1496 23.3374 62.4832 21.6794C62.5182 21.7464 62.5531 21.7799 62.6056 21.8302V21.8333Z" fill="#6EA936"/>
<path d="M58.9573 46.1551C58.8874 46.1887 58.8349 46.239 58.765 46.2725C58.7825 46.1887 58.8 46.1049 58.8175 46.0043C58.8699 46.0546 58.9223 46.1049 58.9573 46.1551Z" fill="#6EA936"/>
<path d="M62.4658 21.6992H62.6755C62.6405 21.7495 62.6231 21.783 62.5881 21.8333C62.5532 21.783 62.5182 21.7495 62.4658 21.6992Z" fill="#6EA936"/>
</g>
<defs>
<clipPath id="clip0_1063_59">
<rect width="95" height="85" fill="white"/>
</clipPath>
</defs>
</svg>
