<svg width="32" height="37" viewBox="0 0 32 37" fill="none" xmlns="http://www.w3.org/2000/svg">
<path d="M18.2857 5.78125C18.2857 4.50215 17.2643 3.46875 16 3.46875C14.7357 3.46875 13.7143 4.50215 13.7143 5.78125V16.1875H3.4286C2.16431 16.1875 1.14288 17.2209 1.14288 18.5C1.14288 19.7791 2.16431 20.8125 3.4286 20.8125H13.7143V31.2188C13.7143 32.4979 14.7357 33.5312 16 33.5312C17.2643 33.5312 18.2857 32.4979 18.2857 31.2188V20.8125H28.5715C29.8357 20.8125 30.8572 19.7791 30.8572 18.5C30.8572 17.2209 29.8357 16.1875 28.5715 16.1875H18.2857V5.78125Z" fill="#1E3932"/>
</svg>
