<svg width="23" height="27" viewBox="0 0 23 27" fill="none" xmlns="http://www.w3.org/2000/svg">
<path d="M11.4013 2.46989C11.7368 1.48552 11.1917 0.424969 10.1914 0.0968438C9.19118 -0.231281 8.10108 0.301922 7.76566 1.28044L0.0989959 23.7804C-0.236421 24.7648 0.308631 25.8254 1.30889 26.1535C2.30915 26.4816 3.39926 25.9484 3.73467 24.9699L11.4013 2.46989ZM15.648 0.0265315C14.6058 -0.14339 13.6175 0.548016 13.4438 1.56755L9.61045 24.0675C9.43676 25.0871 10.1435 26.0539 11.1857 26.2238C12.2279 26.3937 13.2162 25.7023 13.3899 24.6828L17.2232 2.18278C17.3969 1.16325 16.6901 0.196453 15.648 0.0265315ZM21.0805 0.00309388C20.0203 0.00309388 19.1638 0.840985 19.1638 1.87809V24.3781C19.1638 25.4152 20.0203 26.2531 21.0805 26.2531C22.1407 26.2531 22.9972 25.4152 22.9972 24.3781V1.87809C22.9972 0.840985 22.1407 0.00309388 21.0805 0.00309388Z" fill="#FFFACD"/>
</svg>
